<svg xmlns="http://www.w3.org/2000/svg" width="512" height="512" viewBox="0 0 512 512" role="img" aria-label="4Dach application icon">
  <g fill="#cc743d">
    <path d="M24 350l30-24 24 6 22-12 24 7 22-12 23 7 23-13 31 10 20-18-20-8-27 12-20-8-22 12-23-8-24 12-22-8-22 12-16-5-35 28z"/>
    <path d="M54 300l27-21 21 6 18-10 20 6 18-10 19 6 18-10 25 8 16-14-16-7-22 9-16-6-18 10-19-6-20 10-18-6-18 10-13-4-31 25z"/>
    <path d="M88 254l26-21 20 6 18-10 19 6 18-10 18 6 18-10 23 8 16-14-16-6-20 9-17-6-18 10-18-6-19 10-18-6-18 10-13-4-29 24z"/>
    <path d="M18 367h162l174-170 112 111h25L354 171z"/>
    <path d="M417 179h29v62l-29-29z"/>
    <rect x="321" y="292" width="18" height="18"/>
    <rect x="347" y="292" width="18" height="18"/>
    <rect x="321" y="318" width="18" height="18"/>
    <rect x="347" y="318" width="18" height="18"/>
  </g>
</svg>
